<?xml version="1.0"?>
<svg width="212" height="26" xmlns="http://www.w3.org/2000/svg" xmlns:svg="http://www.w3.org/2000/svg">
 <defs>
  <clipPath id="clip0_1692_276">
   <rect fill="white" height="26" id="svg_1" width="212"/>
  </clipPath>
 </defs>
 <g class="layer">
  <title>Layer 1</title>
  <g clip-path="url(#clip0_1692_276)" id="svg_2">
   <path d="m184.53,16.04c0,5.5 -4.56,9.95 -10.2,9.95l-3.32,0c-5.63,0 -10.2,-4.45 -10.2,-9.95l0,-5.61c0,-5.5 4.57,-9.96 10.2,-9.96l9.46,0l0,6.94l-7.78,0c-1.93,0 -3.49,1.53 -3.49,3.41l0,4.6c0,1.88 1.56,3.41 3.49,3.41c1.93,0 3.49,-1.53 3.49,-3.41l0,-5.51l8.37,0l0,6.13l-0.02,0z" fill="#00205b" id="svg_3"/>
   <path d="m145.87,2.01c-0.58,-1.01 -1.94,-1.77 -3.33,-1.77l-2.03,0c-2.06,0 -3.73,1.64 -3.73,3.65l0,21.49l8.31,0l0,-10.57l5.24,9.1c0.64,1.1 1.66,1.88 3.06,1.88l2.02,0c2.07,0 3.74,-1.63 3.74,-3.65l0,-21.42l-8.27,0l0,9.91l-5,-8.62l-0.01,0z" fill="#00205b" id="svg_4"/>
   <path d="m94.63,19.74c0,3.11 2.59,5.64 5.79,5.64l11.46,0l0,-6.7l-8.94,0l0,-17.98l-8.31,0l0,19.04l0,0z" fill="#00205b" id="svg_5"/>
   <path d="m5.79,25.38c-3.2,0 -5.79,-2.53 -5.79,-5.65l0,-13.38c0,-3.12 2.59,-5.65 5.79,-5.65l14.89,0l0,6.65l-12.29,0l0,2.52l10.07,0l0,6.28l-10.07,0l0,2.51l12.3,0l0,6.73l-14.9,0l0,-0.01z" fill="#00205b" id="svg_6"/>
   <path d="m28,0.71c-3.2,0 -5.79,2.54 -5.79,5.66l0,4.16c0,3.13 2.59,5.66 5.79,5.66l9.06,0l0,2.62l-14.75,0l0,6.55l17.35,0c3.19,0 5.78,-2.54 5.78,-5.67l0,-4.16c0,-3.13 -2.59,-5.66 -5.78,-5.66l-9.07,0l0,-2.62l14.86,0l0,-6.53l-17.45,-0.01z" fill="#00205b" id="svg_7"/>
   <path d="m52.91,0.71c-3.2,0 -5.79,2.54 -5.79,5.66l0,4.16c0,3.13 2.59,5.66 5.79,5.66l9.06,0l0,2.62l-14.75,0l0,6.55l17.35,0c3.19,0 5.78,-2.54 5.78,-5.67l0,-4.16c0,-3.13 -2.59,-5.66 -5.78,-5.66l-9.07,0l0,-2.62l14.86,0l0,-6.53l-17.45,-0.01z" fill="#00205b" id="svg_8"/>
   <path d="m77.94,25.38c-3.2,0 -5.79,-2.53 -5.79,-5.65l0,-13.38c0,-3.12 2.59,-5.65 5.79,-5.65l14.89,0l0,6.65l-12.3,0l0,2.52l10.07,0l0,6.28l-10.07,0l0,2.51l12.3,0l0,6.73l-14.89,0l0,-0.01z" fill="#00205b" id="svg_9"/>
   <path d="m134.98,0.69l-8.29,0l-0.01,15.37c0,1.48 -1.22,2.67 -2.73,2.67c-1.51,0 -2.72,-1.19 -2.72,-2.67l0,-15.37l-8.35,0l-0.01,15.94c0,5.17 4.27,9.36 9.55,9.36l3.02,0c5.27,0 9.55,-4.19 9.55,-9.36l-0.01,-15.94z" fill="#00205b" id="svg_10"/>
   <path d="m203.51,3.68c-0.54,-1.97 -2.38,-3.42 -4.57,-3.42l-4.5,0c-2.19,0 -4.03,1.45 -4.57,3.42l-6.31,21.7l8.36,0l1.1,-3.83l0.01,-0.05l6.99,0l0.02,0.05l1.02,3.83l8.36,0l-5.91,-21.7zm-8.9,11.89l2.02,-7.63l1.91,7.63l-3.93,0z" fill="#00205b" id="svg_11"/>
   <path d="m208.3,1.76l0.99,0c0.14,0 0.25,0.03 0.34,0.07c0.15,0.07 0.23,0.21 0.23,0.42c0,0.2 -0.06,0.33 -0.17,0.41c-0.11,0.07 -0.26,0.11 -0.45,0.11l-0.94,0l0,-1.01zm0,2.59l0,-1.26l0.92,0c0.17,0 0.29,0.02 0.37,0.06c0.13,0.06 0.2,0.19 0.21,0.38l0.02,0.49c0,0.11 0.02,0.19 0.03,0.23c0,0.04 0.01,0.07 0.03,0.1l0.5,0l0,-0.07c-0.06,-0.03 -0.11,-0.09 -0.13,-0.18c-0.02,-0.05 -0.02,-0.13 -0.03,-0.24l-0.02,-0.4c0,-0.17 -0.04,-0.29 -0.09,-0.37c-0.06,-0.08 -0.15,-0.14 -0.26,-0.18c0.13,-0.07 0.23,-0.16 0.31,-0.27c0.07,-0.11 0.11,-0.26 0.11,-0.43c0,-0.34 -0.14,-0.57 -0.42,-0.69c-0.14,-0.07 -0.33,-0.1 -0.57,-0.1l-1.38,0l0,2.92l0.41,0l-0.01,0.01z" fill="#00205b" id="svg_12"/>
   <path d="m208.99,0c-1.67,0 -3.02,1.32 -3.02,2.94c0,1.63 1.35,2.95 3.02,2.95c1.66,0 3.01,-1.32 3.01,-2.95c0,-1.62 -1.35,-2.94 -3.01,-2.94zm0,5.42c-1.4,0 -2.54,-1.11 -2.54,-2.48c0,-1.36 1.14,-2.48 2.54,-2.48c1.39,0 2.53,1.12 2.53,2.48c0,1.37 -1.14,2.48 -2.53,2.48z" fill="#00205b" id="svg_13"/>
  </g>
 </g>
</svg>